<svg xmlns="http://www.w3.org/2000/svg" xmlns:xlink="http://www.w3.org/1999/xlink" viewBox="0 0 335.11 389.63"><defs><style>.cls-1{fill:#87aedd;opacity:0.25;}.cls-2{isolation:isolate;}.cls-3{fill:#adcdfc;}.cls-4{fill:#e2edff;}.cls-5{fill:#c7d8f2;}.cls-6{fill:#7baeff;}.cls-7{fill:#4da5dc;}.cls-8{fill:#3aaeef;}.cls-9{fill:#e1e8f2;}.cls-10{fill:#e16b40;}.cls-11{fill:#ff8654;}.cls-12{fill:#0046a6;}.cls-13{fill:#003783;}.cls-14{fill:#ff9f75;}.cls-15{fill:#cfdae4;}.cls-16{fill:#00a5ff;}.cls-17{fill:#382747;}.cls-18{fill:#94a3c0;}.cls-19{fill:#fff;}.cls-20{fill:#ff5668;}.cls-21{fill:#b391ff;}.cls-22{fill:#d4d9df;}.cls-23{fill:#f2f8fd;}.cls-24{fill:url(#linear-gradient);}.cls-25{fill:url(#linear-gradient-2);}.cls-26{fill:#05ccff;}.cls-27{fill:#540cc7;}.cls-28{fill:#3f0995;}.cls-29{fill:#7974f5;}.cls-30{fill:#2689fd;}.cls-31{fill:#3548db;}.cls-32{fill:#58affb;}.cls-33{fill:#ee2c6a;}.cls-34{fill:#ee428c;}.cls-35{fill:#ff3d9d;}.cls-36{fill:#7cccff;}.cls-37{fill:#3eabff;}.cls-38{fill:#cc096a;}.cls-39,.cls-47{fill:none;}.cls-40{fill:#3278cc;}.cls-41{fill:#e2a029;}.cls-42{fill:#ffbe3d;}.cls-43{fill:url(#linear-gradient-3);}.cls-44{fill:url(#linear-gradient-4);}.cls-45{fill:#343996;}.cls-46{fill:#1ae5ff;}.cls-47{stroke:#16c5dc;stroke-miterlimit:10;}.cls-48{fill:#f1f1f1;}.cls-49{fill:#fdb913;}.cls-50{opacity:0.53;}.cls-51{fill:#ff4272;}.cls-52{fill:#212973;}.cls-53{fill:#1ce5ff;}.cls-54{fill:#00a935;}.cls-55{fill:#61e041;}.cls-56{fill:#00cc41;}.cls-57{fill:#14347c;}.cls-58{fill:#18388f;}.cls-59{fill:#ce7c56;}.cls-60{fill:#ffaa83;}.cls-61{fill:#4d2c63;}</style><linearGradient id="linear-gradient" x1="200.67" y1="203.06" x2="194.11" y2="253.6" gradientTransform="matrix(-1, 0, 0, 1, 374.98, 0)" gradientUnits="userSpaceOnUse"><stop offset="0" stop-color="#c6e6ff"/><stop offset="1" stop-color="#8d9fff"/></linearGradient><linearGradient id="linear-gradient-2" x1="335.7" y1="291.78" x2="354.44" y2="249.81" gradientTransform="translate(-165.5)" gradientUnits="userSpaceOnUse"><stop offset="0" stop-color="#1ae5ff"/><stop offset="1" stop-color="#eaeeee"/></linearGradient><linearGradient id="linear-gradient-3" x1="-140.31" y1="191.22" x2="-111.03" y2="-26.42" gradientTransform="matrix(-1, 0, 0, 1, 137.87, 0)" gradientUnits="userSpaceOnUse"><stop offset="0" stop-color="#1ae5ff"/><stop offset="0.26" stop-color="#64e8f9"/><stop offset="0.7" stop-color="#eaeeee"/></linearGradient><linearGradient id="linear-gradient-4" x1="-197.24" y1="130.9" x2="-185.51" y2="130.9" gradientTransform="matrix(-1, 0, 0, 1, 137.87, 0)" gradientUnits="userSpaceOnUse"><stop offset="0" stop-color="#5155d4"/><stop offset="1" stop-color="#45f7ff"/></linearGradient></defs><title>Asset 2</title><g id="Layer_2" data-name="Layer 2"><g id="OBJECTS"><path class="cls-1" d="M304.12,336.29c-13.84-8-33.26-10.74-50.91-8.27l62.63-36.39c6.84-4,6.81-10.42-.08-14.4L172.41,194.47c-6.89-4-18-4-24.85,0l-49,28.46c-21.2-9.35-51.53-8.44-70.8,2.76s-20.76,28.78-4.54,41L5.14,277.23c-6.84,4-6.81,10.42.08,14.4l143.35,82.76c6.88,4,18,4,24.85,0L213.65,351c-4.22,10.24.59,21.48,14.43,29.47,21.13,12.2,55.31,12.2,76.31,0S325.25,348.49,304.12,336.29Z"/><g class="cls-2"><path class="cls-3" d="M87.9,244.89c-.56,6.28-6.48,10.55-11.81,12.85a45.4,45.4,0,0,1-18.5,3.43A43.9,43.9,0,0,1,38.79,257c-5.06-2.49-10.43-7-10.41-13.15,0,4.47.3,8.17,3.52,11.66,4.15,4.5,10.4,6.92,16.28,8.14C59.65,266,75.27,264.87,84,256c3.5-3.55,4-7.3,4-12A8.5,8.5,0,0,1,87.9,244.89Z"/><path class="cls-4" d="M79.17,231.72c11.68,6.74,11.75,17.67.15,24.41s-30.48,6.74-42.15,0S25.45,238.46,37,231.72,67.5,225,79.17,231.72Z"/></g><g class="cls-2"><polygon class="cls-5" points="63.49 218.1 63.41 244.15 58.85 246.79 58.93 220.75 63.49 218.1"/><polygon class="cls-6" points="58.93 220.75 58.85 246.79 54.27 244.15 54.34 218.1 58.93 220.75"/><polygon class="cls-7" points="63.49 218.1 58.93 220.75 54.34 218.1 58.9 215.45 63.49 218.1"/></g><path class="cls-8" d="M29.29,133.64s-9.34,2.49-11.83,8.1-1.87,47.94,11.21,65.38S66,227,71.63,224.55s38-18.68,40.47-26.77-10-14.33-16.81-17.44-11.21-7.47-14.94-18.68-5.61-30.51-10-33.62S55.44,119.94,29.29,133.64Z"/><path class="cls-9" d="M85.12,122.38s-15.32-12.69-18.44-13c-3.74-.29-8.4,1-9.62,6.28a9.77,9.77,0,0,0,4.42,10.87c2.81,1.54,27.46,13.24,31.82,13.22s7.14-3.78,4.32-8.43S85.12,122.38,85.12,122.38Z"/><path class="cls-10" d="M58.63,106.5a1.66,1.66,0,0,0,0,.51c.23,1.13,1,4,1.11,5.25s-1.07,3.27-4.24,3.36-8.61-1-10.59-4.65a87.18,87.18,0,0,0-1.07-11.12Z"/><path class="cls-11" d="M65.44,83.44c-2.29-9.6-10.23-14.72-18.82-12.26,0,0-9.36,1.41-13.13,9.88s2.71,15.12,6.85,19.31c1.75,1.72,3.07,3,3.91,3.89.3.32.6.64.91.93l.09.09h0a19.64,19.64,0,0,0,8.28,4.48c3.85.94,8.29.08,10.58-2.62S67.74,93,65.44,83.44Z"/><path class="cls-12" d="M45.65,107.26S30.57,119.2,29.2,123,28,137.14,31.58,143.87s3.64,32.16,5,37.07,14.86,5.81,23.07,3.8,21.22-8.88,18.61-18.19c-3.87-13.74-3-27.59-2.64-32s-.8-15.27-3.18-22.49c-.5-1.53-5.88-3.65-5.88-3.65S61,105.84,45.65,107.26Z"/><path class="cls-13" d="M48.39,164.15c-6.23-7.88,2.9-34.87-7.89-42.34-3.29-2.28-6.12-2.85-8.46-2.56A13.76,13.76,0,0,0,29.2,123c-1.36,3.79-1.18,14.15,2.38,20.88s3.64,32.16,5,37.07c1.28,4.46,12.54,5.61,20.73,4.26l11.79-12.33S54.61,172,48.39,164.15Z"/><path class="cls-9" d="M45.14,109.28c13.11-1.21,19.15,1,20.65,1.74a38.75,38.75,0,0,1-.19,9.32c-1,6.19-3.5,23.22-3.5,23.22s-8.09-14-13.42-19.74c-3.74-4.06-7.44-7.87-9.3-9.79C42.53,111.35,45.14,109.28,45.14,109.28Z"/><path class="cls-11" d="M58.63,106.5a1.66,1.66,0,0,0,0,.51c.23,1.13,1,4,1.11,5.25s-1.07,3.27-4.24,3.36-8.61-1-10.59-4.65a87.18,87.18,0,0,0-1.07-11.12Z"/><path class="cls-14" d="M65.44,83.44c-2.29-9.6-10.23-14.72-18.82-12.26,0,0-9.36,1.41-13.13,9.88s2.71,15.12,6.85,19.31c1.75,1.72,3.07,3,3.91,3.89.3.32.6.64.91.93l.09.09h0a19.64,19.64,0,0,0,8.28,4.48c3.85.94,8.29.08,10.58-2.62S67.74,93,65.44,83.44Z"/><path class="cls-15" d="M63.93,123.8l-5.84-5.18-4.68,8.19-4.71-3c5.32,5.76,13.4,19.73,13.4,19.73s2.06-14.2,3.2-21.38Z"/><path class="cls-16" d="M63.53,133.83l-2.6-9.2.39-3.14-3.23-2.87-2.27,4,2.6,2.38.71,13.65c1.77,2.87,3,4.94,3,4.94S62.76,139.05,63.53,133.83Z"/><path class="cls-10" d="M32.4,80.1a14.27,14.27,0,0,0,.94,14C38,101.27,43,104.45,44.25,104.26s1.85-.5,1.54-1.44-1.87-4-1.87-4-5.29-.62-5.29-4,1.87-4,4-3.12,2.49,2.49,3.73,3.74S48,99.71,48.9,99.4s1.56-1.25,1.56-2.8a6.57,6.57,0,0,0-1.87-5.3c-1.86-1.87.31-5-1.55-7.47a18.1,18.1,0,0,0-3.12-3.42s1.25,1.86,7.48.62,9-.93,11.51-2.49,1.87-5,.32-6.23-5.3-1.87-9.66-3.42-6.84-.63-12.14.62S31.16,76.36,32.4,80.1Z"/><path class="cls-17" d="M120.2,267.51a6.49,6.49,0,0,0,3.11,5.4c3.32,2.28,3.94,3.73,6.64,4.77s5.19,4.57,4,7.06-7.06,2.9-10.8,1.87-4.35-4.36-7.88-5.61a13,13,0,0,1-5.81-3.73c-1-1-.63-5.19-.63-5.19l12.66-4.15"/><path class="cls-17" d="M136.39,255.47a6.49,6.49,0,0,0,3.11,5.4c3.32,2.28,3.94,3.74,6.64,4.77s5.19,4.57,4,7.06-7.06,2.91-10.8,1.87-4.36-4.36-7.88-5.61a13,13,0,0,1-5.82-3.73c-1-1-.62-5.19-.62-5.19l12.66-4.15"/><path class="cls-18" d="M37.59,181.07a22.46,22.46,0,0,1,.63,4.67c0,2.18-1.56,8.4,1.55,15.88s24,9,30.82,12.14a67.9,67.9,0,0,1,12.15,6.85c1.24.93,3,14.11,8.4,22s14.53,23.66,16.6,30.3A15.72,15.72,0,0,0,119,270.83c2.78-1.81,2.49-2.9,2.49-2.9s-10.79-23.66-13.28-33.63-5.4-21.58-10-24.49-19.1-13.28-22.42-15.36-12.27-8.63-14-12.62S43,171.42,37.59,181.07Z"/><path class="cls-18" d="M54.72,170.79a22.8,22.8,0,0,1,.62,4.67c0,2.18-1.56,8.41,1.56,15.88s24,9,30.82,12.14a69,69,0,0,1,12.14,6.85c1.24.94,3,14.12,8.4,22s14.53,23.66,16.61,30.3a15.68,15.68,0,0,0,11.21-2.07c2.77-1.82,2.49-2.91,2.49-2.91S127.77,234,125.28,224s-5.39-21.58-10-24.49-19.09-13.28-22.41-15.36-12.27-8.64-14-12.62S60.11,161.14,54.72,170.79Z"/><g class="cls-2"><polygon class="cls-5" points="138.77 249.51 138.59 312.83 127.51 319.27 127.69 255.95 138.77 249.51"/><polygon class="cls-6" points="127.69 255.95 127.51 319.27 116.36 312.83 116.54 249.51 127.69 255.95"/><polygon class="cls-7" points="138.77 249.51 127.69 255.95 116.54 249.51 127.62 243.08 138.77 249.51"/></g><path class="cls-3" d="M320.91,206.14a4.86,4.86,0,0,1-.07.55c0,.16-.07.31-.11.46s-.09.35-.15.52-.12.29-.18.43-.16.36-.26.55-.15.26-.23.39-.27.41-.42.61-.29.39-.46.58l-.12.13a8.53,8.53,0,0,1-.74.73c-.16.15-.35.3-.54.45s-.31.26-.49.38-.42.29-.63.43-.43.29-.67.42L173.42,295.54a19.43,19.43,0,0,1-3.85,1.69,23.84,23.84,0,0,1-3.33.83c-.73.14-1.48.24-2.24.31s-1.29.11-1.95.13-1.2,0-1.8,0-1.15,0-1.73-.09l0,10.15c.58.05,1.16.08,1.73.09s1.21,0,1.8,0,1.31-.07,1.95-.13,1.51-.18,2.25-.32a25.16,25.16,0,0,0,3.32-.82,20,20,0,0,0,3.85-1.7l142.42-82.76.22-.13.45-.3c.21-.14.43-.28.63-.43s.33-.25.49-.38.38-.3.55-.45l.1-.09c.23-.21.44-.42.64-.64l.11-.13c.12-.13.24-.27.34-.4a1.88,1.88,0,0,0,.12-.18,7.4,7.4,0,0,0,.42-.61c.05-.09.12-.17.17-.26a.75.75,0,0,0,.06-.13c.1-.18.18-.37.26-.55s.11-.21.15-.32l0-.11a5.08,5.08,0,0,0,.15-.52c0-.12.08-.24.1-.36a.28.28,0,0,0,0-.09,5.35,5.35,0,0,0,.07-.56c0-.12,0-.24,0-.36v-.15l0-10.15C321,205.8,320.92,206,320.91,206.14Z"/><path class="cls-3" d="M156.81,298.23c-.58-.08-1.17-.19-1.74-.3s-1.23-.28-1.83-.45-1.45-.45-2.14-.72a19.72,19.72,0,0,1-2.53-1.22L5.22,212.78c-3.47-2-5.2-4.63-5.19-7.25l0,10.15c0,2.62,1.72,5.25,5.19,7.25l143.35,82.76a19.23,19.23,0,0,0,2.54,1.22c.68.27,1.4.51,2.13.72s1.21.32,1.83.45,1.16.22,1.75.3,1.13.14,1.7.19l0-10.15C158,298.37,157.38,298.31,156.81,298.23Z"/><path class="cls-4" d="M315.76,198.78c6.89,4,6.92,10.42.08,14.4L173.42,295.94c-6.84,4-18,4-24.85,0L5.22,213.18c-6.89-4-6.92-10.42-.08-14.4L147.56,116c6.84-4,18-4,24.85,0Z"/><polygon class="cls-19" points="161.69 228.76 200.93 251.56 228.54 235.63 189.29 212.82 161.69 228.76"/><path class="cls-20" d="M195,223.08l-6.17,3.59-7.82-2.3c2.18-2.5,7.45-3.49,11.77-2.22A9.75,9.75,0,0,1,195,223.08Z"/><path class="cls-21" d="M196.46,223.55c4.15,2.4,4.17,6.28,0,8.68a16.54,16.54,0,0,1-15,0c-3.32-1.92-4.1-4.71-2-7.13l9.45,2.79Z"/><path class="cls-3" d="M190.78,240.6a.38.38,0,0,0,0,.72,1.4,1.4,0,0,0,1.23,0l17.52-10.12a.37.37,0,0,0,0-.71,1.34,1.34,0,0,0-1.23,0Z"/><path class="cls-22" d="M202.89,236a.38.38,0,0,0,0,.72,1.36,1.36,0,0,0,1.24,0l7.43-4.29c.35-.2.34-.52,0-.72a1.37,1.37,0,0,0-1.23,0Z"/><path class="cls-22" d="M200.58,239.48c-.34.2-.35.52,0,.71a1.36,1.36,0,0,0,1.24,0l11.63-6.72c.34-.19.35-.51,0-.71a1.34,1.34,0,0,0-1.23,0Z"/><path class="cls-23" d="M207.9,261.24a1.05,1.05,0,0,1,0,2l-28,16.27a3.79,3.79,0,0,1-3.44,0L156.9,268.21a1.05,1.05,0,0,1,0-2l28-16.27a3.79,3.79,0,0,1,3.44,0Z"/><path class="cls-24" d="M208.61,262.32s0,.05,0,.07a.14.14,0,0,1,0,.06.24.24,0,0,1,0,.08.14.14,0,0,1,0,.06.25.25,0,0,1,0,.07l0,.06-.06.08,0,.05-.1.11,0,0-.08.06-.06.06-.09.05-.09.06-28,16.27a2.68,2.68,0,0,1-.34.16l-.09,0-.23.07-.24.06-.3.05h-.07l-.41,0h-.06l-.41,0h-.06l-.39-.07h-.07l-.34-.11-.06,0a2.48,2.48,0,0,1-.37-.17L156.9,268.21a1.4,1.4,0,0,1-.67-.73.86.86,0,0,1,0-.27v1.12a.57.57,0,0,0,0,.13,1.28,1.28,0,0,0,.7.87l19.56,11.29a2.85,2.85,0,0,0,.35.17h0l.06,0,.21.07.13,0,.06,0h.07l.24,0h.72l.27,0h.11l.2,0,.09,0,.24-.06.13,0,.1,0,.1,0,.34-.16,28-16.26,0,0,.06,0,.09-.06.07-.06.07-.06h0l0,0a1.14,1.14,0,0,0,.11-.11s0,0,0,0l0,0a.35.35,0,0,0,.05-.08l0,0v0l0-.07s0,0,0,0h0a.14.14,0,0,1,0-.07.43.43,0,0,1,0-.05v0a.17.17,0,0,0,0-.07.43.43,0,0,1,0-.05v-1.07Z"/><path class="cls-25" d="M205,261.6a.34.34,0,0,1,0,.64l-26.59,15.45a1.19,1.19,0,0,1-1.1,0L159.7,267.52c-.3-.18-.31-.46,0-.64l26.59-15.45a1.19,1.19,0,0,1,1.1,0Z"/><polygon class="cls-19" points="74.52 168.98 113.76 191.79 141.37 175.85 102.12 153.05 74.52 168.98"/><path class="cls-21" d="M107.87,163.31l-6.17,3.59-7.82-2.31c2.18-2.49,7.45-3.49,11.77-2.21A9.32,9.32,0,0,1,107.87,163.31Z"/><path class="cls-26" d="M109.29,163.78c4.15,2.39,4.17,6.28,0,8.67a16.48,16.48,0,0,1-15,0c-3.32-1.91-4.1-4.71-2-7.12l9.45,2.78Z"/><path class="cls-3" d="M103.61,180.83a.37.37,0,0,0,0,.71,1.34,1.34,0,0,0,1.23,0l17.52-10.11a.38.38,0,0,0,0-.72,1.4,1.4,0,0,0-1.23,0Z"/><path class="cls-22" d="M115.71,176.18a.38.38,0,0,0,0,.71,1.39,1.39,0,0,0,1.24,0l7.43-4.3c.35-.19.34-.51,0-.71a1.34,1.34,0,0,0-1.23,0Z"/><path class="cls-26" d="M113.41,179.7c-.35.2-.35.52,0,.72a1.39,1.39,0,0,0,1.24,0l11.63-6.72a.37.37,0,0,0,0-.71,1.34,1.34,0,0,0-1.23,0Z"/><g class="cls-2"><polygon class="cls-27" points="137.63 239.28 137.63 241.64 132.19 244.8 132.19 242.44 137.63 239.28"/><polygon class="cls-28" points="132.19 242.44 132.19 244.8 85.95 218.1 85.96 215.75 132.19 242.44"/><polygon class="cls-29" points="137.63 239.28 132.19 242.44 85.96 215.75 91.4 212.59 137.63 239.28"/></g><g class="cls-2"><polygon class="cls-30" points="117.08 239.73 117.08 242.09 111.64 245.25 111.65 242.89 117.08 239.73"/><polygon class="cls-31" points="111.65 242.89 111.64 245.25 75.33 224.28 75.33 221.92 111.65 242.89"/><polygon class="cls-32" points="117.08 239.73 111.65 242.89 75.33 221.92 80.77 218.77 117.08 239.73"/></g><g class="cls-2"><polygon class="cls-33" points="86.75 234.54 86.75 236.9 81.31 240.06 81.32 237.7 86.75 234.54"/><polygon class="cls-34" points="81.32 237.7 81.31 240.06 64.69 230.46 64.7 228.1 81.32 237.7"/><polygon class="cls-35" points="86.75 234.54 81.32 237.7 64.7 228.1 70.13 224.94 86.75 234.54"/></g><path class="cls-3" d="M50.07,221.52a.59.59,0,0,0,0,1.12,2.08,2.08,0,0,0,1.94,0L79.62,206.7c.54-.31.55-.81,0-1.12a2.08,2.08,0,0,0-1.94,0Z"/><path class="cls-3" d="M69.15,214.19a.6.6,0,0,0,0,1.12,2.15,2.15,0,0,0,2,0l11.71-6.76c.55-.32.54-.82,0-1.14a2.17,2.17,0,0,0-1.94,0Z"/><path class="cls-3" d="M65.52,219.74c-.55.32-.56.82,0,1.13a2.13,2.13,0,0,0,2,0l18.34-10.59a.59.59,0,0,0,0-1.12,2.14,2.14,0,0,0-1.94,0Z"/><g class="cls-2"><path class="cls-36" d="M63.86,194.2l-4.39,2.55a15.86,15.86,0,0,0-14.12.12l-.23.14-4.42-2.55.24-.14C47.24,190.66,57.44,190.62,63.86,194.2Z"/><path class="cls-36" d="M64.54,194.6c5.21,3.27,5.75,8.13,1.6,11.71l-4.55-2.63c1.82-2.09,1.34-4.69-1.45-6.52Z"/><path class="cls-37" d="M65.57,206.77a13.14,13.14,0,0,1-1.43.95c-6.2,3.6-16.2,3.69-22.64.27l4.4-2.56c4,2,10.05,1.94,13.83-.26a8.23,8.23,0,0,0,1.36-1Z"/></g><path class="cls-37" d="M44.5,197.44c-3,2.26-2.76,5.49.7,7.61l-4.39,2.55c-5.9-3.53-6.16-9-.75-12.73Z"/><path class="cls-32" d="M150.79,76.36a8,8,0,0,1,3.64,6.31l0,35.29c0,2.32-1.65,3.25-3.66,2.09l-9.85-5.68-.47.67-1.92,2.7-1.91-4.91-.47-1.22-9.84-5.68a8,8,0,0,1-3.64-6.31l0-35.29c0-2.32,1.64-3.26,3.66-2.09Z"/><path class="cls-19" d="M133.73,76.74v1a.76.76,0,0,1-1.14.66l-4.68-2.72a.76.76,0,0,1-.38-.66V74a.76.76,0,0,1,1.14-.65l4.69,2.72A.76.76,0,0,1,133.73,76.74Z"/><path class="cls-3" d="M148.55,90.23v1a.76.76,0,0,1-1.14.66L127.89,80.61a.73.73,0,0,1-.38-.66V79a.76.76,0,0,1,1.14-.66l19.52,11.27A.77.77,0,0,1,148.55,90.23Z"/><polygon class="cls-19" points="132.54 89.84 132.54 90.98 129.9 100 128.77 99.35 131.4 90.34 127.95 88.35 127.95 87.19 132.54 89.84"/><path class="cls-19" d="M137.91,92.94V94.1l-3-1.72-.18,3.49c.33-.45.83-.48,1.52-.09a4.18,4.18,0,0,1,1.87,3.86v2.27c0,1.79-.75,2.53-2.3,1.63a4.7,4.7,0,0,1-2.28-4.27V98.5l1.06.61V100a2.56,2.56,0,0,0,1.18,2.37c.81.47,1.19.05,1.19-1V99.08a2.57,2.57,0,0,0-1.18-2.37c-.62-.36-1.05-.2-1.15.59v.26L133.61,97l.31-6.32Z"/><path class="cls-19" d="M145.63,101.7a3,3,0,0,1,1.44,2.7v3.67c0,1.14-.45,1.63-1.45,1.05a3,3,0,0,1-1.46-2.73v-3.67C144.17,101.61,144.64,101.13,145.63,101.7Zm.7,6v-3.79a1.56,1.56,0,0,0-.71-1.46c-.52-.3-.73,0-.74.62v3.79a1.63,1.63,0,0,0,.73,1.49c.5.29.72,0,.72-.65"/><path class="cls-19" d="M142.09,100.86c0,1.13-.48,1.61-1.47,1a3,3,0,0,1-1.44-2.71V95.49c0-1.11.47-1.6,1.45-1a3,3,0,0,1,1.46,2.72Zm-.73-.36V96.7a1.63,1.63,0,0,0-.73-1.49c-.52-.3-.72,0-.72.65v3.81a1.55,1.55,0,0,0,.71,1.46c.52.3.74,0,.74-.63"/><polygon class="cls-19" points="144.77 96.9 145.44 97.29 141.42 106.65 140.73 106.25 144.77 96.9"/><path class="cls-3" d="M195.4,149.53c11.67,6.74,11.75,17.67.15,24.41s-30.48,6.74-42.15,0-11.73-17.67-.13-24.41S183.73,142.79,195.4,149.53Z"/><polygon class="cls-38" points="195.67 142.31 195.66 146.6 188.24 150.91 188.25 146.62 195.67 142.31"/><path class="cls-38" d="M165.83,149.65l.15-.06c.42-.16.84-.3,1.28-.44l.91-.26.7-.19,1-.21.72-.14.3,0c.41-.07.82-.12,1.23-.17l.36,0q.7-.08,1.44-.12h.26l1,0h1l.81,0,.9.05.82.07.88.1.79.11.94.16,1,.2.23.05c.45.11.9.23,1.33.36l.38.12c.36.11.72.23,1.07.36l.31.12c.32.12.63.26.94.4l.46.2a14.55,14.55,0,0,1,1.3.68v-5c-.41-.24-.85-.47-1.3-.68l-.45-.2-.8-.35-.15-.05-.3-.11-1.08-.37-.37-.11-.25-.08c-.36-.1-.72-.2-1.09-.28l-.23-.06-.53-.12-.44-.07-.94-.17-.38-.06-.42,0-.88-.1-.42,0-.4,0c-.3,0-.6,0-.9-.05l-.45,0h-1.82l-.49,0h-.26c-.41,0-.81,0-1.21.09l-.23,0-.36,0q-.61.07-1.23.18l-.3,0-.14,0c-.2,0-.38.08-.57.12s-.66.13-1,.21l-.7.19c-.31.08-.61.16-.91.26l-.2,0-1.07.38-.16.06-1.13.49-.33.15c-.41.2-.81.41-1.19.63L163,146l-.19.12-.32.21-.29.19-.3.21-.26.19-.28.22-.24.21-.26.22-.1.09-.09.09-.4.4-.13.13c-.16.18-.32.36-.46.54l0,0-.09.13c-.09.11-.17.23-.25.34a2.14,2.14,0,0,0-.13.19l-.19.32a.22.22,0,0,0-.05.08.83.83,0,0,0-.07.13c0,.09-.1.18-.14.27s-.07.14-.1.22l-.12.27a.61.61,0,0,1-.05.12l0,.11-.09.25a2.17,2.17,0,0,1-.07.24l-.06.26,0,.14s0,.06,0,.09,0,.18,0,.27l0,.23c0,.09,0,.18,0,.27s0,.1,0,.15v5.16c0-.1,0-.2,0-.31a2.45,2.45,0,0,1,0-.27l0-.23a2,2,0,0,1,0-.26,2,2,0,0,1,.05-.24l.06-.26c0-.08,0-.15.07-.23a2.67,2.67,0,0,1,.09-.26c0-.07,0-.15.08-.23l.12-.27.1-.22a2.15,2.15,0,0,1,.14-.26,1.55,1.55,0,0,1,.12-.22,3.21,3.21,0,0,1,.19-.31l.12-.19.25-.35.12-.15a5.62,5.62,0,0,1,.46-.53l.13-.14.4-.4.19-.18.26-.22.24-.2.28-.22.26-.2.3-.21.28-.19.33-.2c.13-.09.27-.17.41-.25.38-.23.78-.43,1.19-.63l.33-.16C165.07,150,165.44,149.8,165.83,149.65Z"/><polygon class="cls-38" points="163.27 161.14 163.26 165.43 155.84 169.75 155.85 165.46 163.27 161.14"/><path class="cls-39" d="M147.5,158.09V153.8c0,4.22,2.77,8.44,8.34,11.66v4.29C150.27,166.53,147.49,162.31,147.5,158.09Z"/><path class="cls-38" d="M155.85,165.46v4.29c-5.57-3.22-8.35-7.44-8.34-11.66V153.8c0,4.22,2.77,8.44,8.34,11.66"/><path class="cls-20" d="M195.67,142.31l-7.42,4.31c-6.94-4-18.16-4-25.06,0s-6.86,10.51.08,14.52l-7.42,4.32c-11.07-6.4-11.13-16.76-.13-23.15S184.6,135.92,195.67,142.31Z"/><path class="cls-40" d="M188.25,147.94v3c3.49,2,5.24,4.66,5.23,7.3v-4.29C193.49,151.29,191.75,150,188.25,147.94Z"/><polygon class="cls-40" points="195.58 166.89 195.57 169.87 188.1 165.56 188.11 162.58 195.58 166.89"/><path class="cls-40" d="M204,154.46l0,.43c0,.12,0,.24-.05.37l-.06.42c0,.12,0,.25-.08.37s-.07.28-.1.42-.07.24-.11.37-.09.27-.14.41l-.13.36c-.06.15-.12.29-.19.43s-.1.24-.16.36-.14.28-.22.42a3.72,3.72,0,0,1-.19.34c-.1.17-.2.34-.31.51l-.2.3c-.12.18-.26.36-.4.55s-.11.15-.17.23c-.23.29-.48.58-.74.86l-.21.21c-.2.22-.41.43-.64.64l-.3.29-.41.35-.39.33-.44.34-.42.32-.48.33-.45.31-.51.32-.66.4-.22.13v4.29l.22-.13.34-.2.31-.19L197,169l.45-.3.48-.34.41-.32.45-.34.39-.33.4-.35.17-.15.14-.14c.23-.21.44-.42.64-.64l.21-.21c.26-.28.5-.57.73-.86l0,0,.15-.2.4-.55.2-.3.31-.5c0-.05.06-.1.08-.14l.11-.21.22-.42.16-.36a3.25,3.25,0,0,0,.18-.43,1.08,1.08,0,0,0,.08-.19,1.15,1.15,0,0,0,.06-.17l.14-.41c0-.12.07-.25.11-.37s.07-.28.1-.42,0-.14.05-.22,0-.1,0-.15,0-.28.07-.42,0-.25,0-.37l0-.43a2.11,2.11,0,0,1,0-.25V154C204,154.13,204,154.29,204,154.46Z"/><path class="cls-32" d="M195.67,143.63c11.07,6.39,11.13,16.75.13,23.14l-.22.12-7.47-4.31.22-.13c6.9-4,6.86-10.51-.08-14.51Z"/><path class="cls-41" d="M191.39,171.83l.91-.37.54-.23.95-.44.45-.21c.45-.23.89-.46,1.33-.71v-1c-.43.25-.88.48-1.33.71l-.45.21-1,.44-.54.23-.91.37-.57.21-1,.33-.61.21-.47.14-.85.24-.49.13-.91.23-.43.1-1.37.29v.95c.46-.08.91-.18,1.36-.28l.42-.1.92-.23.48-.13.86-.25.47-.14.24-.07.37-.13.95-.33Z"/><path class="cls-42" d="M195.58,168.91a35.49,35.49,0,0,1-10.83,3.84L181.3,167a22.51,22.51,0,0,0,6.81-2.38Z"/><path class="cls-29" d="M183.54,172.12l-.85.14-1,.13-.86.1-1.59.14h-.14c-.59,0-1.18.06-1.77.08H175l-1.45-.05h-.27c-.57,0-1.14-.07-1.7-.12l-.45,0c-.44,0-.87-.09-1.31-.15l-.47-.06c-.56-.07-1.12-.16-1.68-.25h0l-1.64-.32-.58-.13-1.1-.27-.61-.16-.94-.28-.86-.26-.86-.3-.83-.3c-.41-.16-.83-.32-1.23-.5l-.12,0c-.48-.2-.94-.42-1.4-.64l-.33-.17c-.45-.23-.9-.47-1.34-.72v1.79c.43.25.88.49,1.34.72l.33.16c.46.23.92.45,1.39.65l.12.05.91.38.33.12.83.3.86.29c.28.1.57.19.86.27l.52.16.42.12.6.15q.56.15,1.11.27l.58.13.25.06,1.39.26h0q.69.12,1.38.21l.29,0,.47.06,1.31.15.45,0,.23,0,1.46.1h.28l1,0h2.89l1.59-.08.14,0,1.4-.11.19,0,.86-.11,1-.12.85-.14.74-.12.48-.09v-1.78Z"/><path class="cls-21" d="M181.3,166.14l3.45,5.77c-9.8,1.89-21.06.57-28.9-4l7.42-4.31C168.16,166.47,175.17,167.3,181.3,166.14Z"/><path class="cls-43" d="M197.27,1,197,.84l-.29-.15-.28-.13-.29-.12L195.9.33l-.06,0h0l-.2-.07-.3-.08L195,.09l-.3,0-.21,0h-.44l-.37,0a2.57,2.57,0,0,0-.4.06h0l-.47.13a3,3,0,0,0-.57.27L187.56,3.2a3.45,3.45,0,0,1,1-.4h0a3.92,3.92,0,0,1,1.19-.06h0a6,6,0,0,1,1.3.29h0a8.59,8.59,0,0,1,1.43.66l130.8,75.52,4.68-2.72Z"/><path class="cls-44" d="M335.1,88.36c0-.11,0-.23,0-.34l0-.34c0-.12,0-.23,0-.35s0-.24,0-.36h0l-.06-.34c0-.13-.05-.25-.08-.37s-.05-.25-.08-.37-.07-.25-.1-.38a2.45,2.45,0,0,1-.08-.29v0s0,0,0-.06l-.12-.36-.12-.36c0-.12-.09-.24-.13-.35s-.09-.23-.14-.34-.07-.18-.11-.26v0l0-.06-.16-.34-.18-.37c-.07-.14-.14-.29-.22-.43s-.16-.3-.25-.44a.59.59,0,0,0,0-.08l-.06-.1c-.16-.28-.34-.56-.52-.83s-.29-.43-.45-.64l-.31-.41-.27-.34c-.09-.1-.18-.21-.28-.31l-.27-.31-.06-.06,0,0-.21-.22-.3-.3L330,77.9l-.31-.28-.16-.13,0,0-.12-.1a3.55,3.55,0,0,0-.31-.23l-.3-.22-.3-.2-.3-.18-.07,0-4.68,2.72a11.69,11.69,0,0,1,1.4,1l0,0a13.31,13.31,0,0,1,1.29,1.21l0,0a16.6,16.6,0,0,1,2.21,3,.56.56,0,0,1,0,.08c.3.53.58,1.08.83,1.64v0a16.42,16.42,0,0,1,.64,1.73v0a14.25,14.25,0,0,1,.41,1.75h0a11.16,11.16,0,0,1,.14,1.71l-.26,89.37a7.94,7.94,0,0,1-.14,1.52v.05a5.63,5.63,0,0,1-.4,1.24v0a3.73,3.73,0,0,1-.53.82,2.43,2.43,0,0,1-.2.25,3.08,3.08,0,0,1-.77.63l4.68-2.72a3.6,3.6,0,0,0,.78-.63,2.35,2.35,0,0,0,.19-.25,2.66,2.66,0,0,0,.26-.31,5.42,5.42,0,0,0,.26-.48v0a1.94,1.94,0,0,0,.15-.36c.05-.12.09-.24.13-.37l.09-.36,0-.15v-.05l0-.14c0-.12,0-.23.05-.34s0-.23,0-.34,0-.22,0-.34v-.36l.26-89.37C335.11,88.57,335.11,88.47,335.1,88.36Z"/><path class="cls-45" d="M323.39,79.21a15.52,15.52,0,0,1,7,12.19l-.26,89.37c0,4.49-3.18,6.29-7.08,4l-130.8-75.52a15.47,15.47,0,0,1-7-12.19l.25-89.37c0-4.49,3.18-6.29,7.09-4Z"/><path class="cls-30" d="M285.48,42.56a4.9,4.9,0,0,1,2.22,3.84l-.08,28.09c0,1.41-1,2-2.23,1.27L244.28,52a4.88,4.88,0,0,1-2.22-3.83l.08-28.09c0-1.41,1-2,2.23-1.27Z"/><path class="cls-19" d="M207.65,30.1v1.27a1,1,0,0,1-1.47.85l-6-3.49a1,1,0,0,1-.49-.85V26.6a1,1,0,0,1,1.47-.84l6,3.49A1,1,0,0,1,207.65,30.1Z"/><path class="cls-46" d="M226.68,47.42V48.7a1,1,0,0,1-1.47.84L200.15,35.07a1,1,0,0,1-.49-.84V33a1,1,0,0,1,1.46-.85l25.06,14.47A1,1,0,0,1,226.68,47.42Z"/><polyline class="cls-47" points="196.12 89.18 206.1 84.09 212.62 94.64 219.9 102.04 227.18 97.65 242.74 92.63 249.77 102.67 256.8 108.44 263.2 117.85 271.86 99.66 282.4 104.67 287.92 100.16 299.34 103.17 316.28 101.66"/><path class="cls-48" d="M255.12,31.75c-3.79-2.19-7.38-1.63-8.86,1.81-1.85,4.31.26,11.57,4.72,16.59l1-2.41c-3-3.53-4.43-8.51-3.14-11.49,1-2.43,3.57-2.82,6.24-1.28a10.08,10.08,0,0,1,1.95,1.47l1-2.41A15.57,15.57,0,0,0,255.12,31.75Z"/><path class="cls-49" d="M258.1,34l-1,2.41.48.47c3.44,3.54,5.12,9,3.75,12.16-.05.11-.1.22-.16.33l-.06.11c-1,1.75-2.9,2.18-5,1.33a8.36,8.36,0,0,1-1-.49l-.27-.16-.42-.28,0,0q-.41-.28-.81-.63l-.11-.09-.3-.27-.11-.1-.38-.38-.61-.66-1,2.41c.2.22.39.44.6.65s.37.37.56.55l.15.15.43.38.14.12c.39.33.77.63,1.16.9l.09.06.52.35.07,0,.35.21c.29.17.57.32.85.45l.61.27c3.22,1.27,6.11.47,7.4-2.53,1.93-4.5-.45-12.22-5.32-17.24C258.43,34.34,258.26,34.18,258.1,34Z"/><path class="cls-19" d="M272.91,47.31v.74a.57.57,0,0,1-.85.48l-3.48-2a.58.58,0,0,1-.28-.49v-.74a.57.57,0,0,1,.85-.49l3.48,2A.58.58,0,0,1,272.91,47.31Z"/><path class="cls-19" d="M283.91,57.32v.74a.56.56,0,0,1-.84.49l-14.49-8.36a.58.58,0,0,1-.28-.49V49a.56.56,0,0,1,.85-.49l14.48,8.36A.56.56,0,0,1,283.91,57.32Z"/><g class="cls-50"><path class="cls-19" d="M277.91,61.21V62a.56.56,0,0,1-.85.49l-8.51-4.91a.59.59,0,0,1-.28-.5V56.3a.56.56,0,0,1,.85-.49l8.51,4.91A.57.57,0,0,1,277.91,61.21Z"/></g><path class="cls-32" d="M281.65,59.7v.73a.56.56,0,0,1-.85.49l-12.24-7.06a.59.59,0,0,1-.28-.49v-.74a.56.56,0,0,1,.85-.49l12.24,7.07A.56.56,0,0,1,281.65,59.7Z"/><path class="cls-51" d="M316.32,92.4c-4.22-2.44-7.66-.48-7.68,4.37s3.41,10.75,7.63,13.19,7.64.48,7.66-4.37A16.79,16.79,0,0,0,316.32,92.4Z"/><path class="cls-52" d="M316.3,97.21c-1.91-1.1-3.47-.22-3.47,2a7.58,7.58,0,0,0,3.45,6c1.9,1.1,3.45.22,3.46-2A7.59,7.59,0,0,0,316.3,97.21Z"/><path class="cls-53" d="M208.18,46.61v1.32a1,1,0,0,1-1.51.87l-6.22-3.58a1,1,0,0,1-.5-.87V43a1,1,0,0,1,1.51-.87l6.21,3.58A1,1,0,0,1,208.18,46.61Z"/><path class="cls-53" d="M227.86,64.42v1.32a1,1,0,0,1-1.51.87L200.46,51.77a1,1,0,0,1-.51-.87V49.58a1,1,0,0,1,1.51-.88l25.89,14.85A1,1,0,0,1,227.86,64.42Z"/><g class="cls-50"><path class="cls-53" d="M217.19,71.4v1.32a1,1,0,0,1-1.51.87l-15.22-8.72A1,1,0,0,1,200,64V62.67a1,1,0,0,1,1.51-.87l15.22,8.72A1,1,0,0,1,217.19,71.4Z"/></g><path class="cls-53" d="M223.85,68.67V70a1,1,0,0,1-1.51.87L200.46,58.32a1,1,0,0,1-.51-.88V56.13a1,1,0,0,1,1.51-.88l21.88,12.54A1,1,0,0,1,223.85,68.67Z"/><g class="cls-2"><polygon class="cls-54" points="297.53 158.04 301.06 155.99 300.99 179.96 297.46 182.01 297.53 158.04"/><path class="cls-55" d="M304.74,157.4v-.21h0V157l0,0v-.06l0,0v0h0l-11-21.88,0,0,0-.06a.35.35,0,0,0-.05-.08.1.1,0,0,0,0-.05l0,0,0,0,0,0v0h0l0,0,0,0,0,0,0,0,0,0,0,0,0,0h0l0,0h0l0,0h-.34l-.05,0-3.54,2.06a.32.32,0,0,1,.21,0h0a.46.46,0,0,1,.24.08,1.2,1.2,0,0,1,.26.21h0a1.72,1.72,0,0,1,.22.33l11,21.88a1.38,1.38,0,0,1,.11.3h0a.86.86,0,0,1,0,.27h0a.46.46,0,0,1-.05.21h0a.37.37,0,0,1-.12.13l3.53-2a.38.38,0,0,0,.11-.11l0,0h0l0,0v-.15h0v0Z"/><path class="cls-56" d="M289.6,136.51a1.29,1.29,0,0,1,.48.54l11,21.88c.32.65,0,1.17-.49.87L297.53,158l-.07,24-16.06-9.27.07-24-3-1.71c-.53-.3-.82-1.16-.48-1.43l11.08-9.14A.42.42,0,0,1,289.6,136.51Z"/></g><polygon class="cls-19" points="175.64 187.61 207.4 220.04 238.25 212.02 206.49 179.59 175.64 187.61"/><g class="cls-2"><path class="cls-4" d="M209.74,189.6l-3,1.15a10.14,10.14,0,0,0-8.93-1.41l-.16.06-2.53-2.07.17-.07A16.35,16.35,0,0,1,209.74,189.6Z"/><path class="cls-4" d="M210.13,189.92c3,2.61,2.78,5.74-.22,7.57l-2.6-2.14c1.37-1.13,1.34-2.82-.23-4.27Z"/><path class="cls-37" d="M209.5,197.72a10.34,10.34,0,0,1-1,.45c-4.3,1.63-10.63.63-14.33-2.21l3-1.15a10.18,10.18,0,0,0,8.77,1.28,4.31,4.31,0,0,0,1-.48Z"/></g><path class="cls-37" d="M197.17,189.61c-2.14,1.11-2.33,3.18-.36,4.88l-3,1.15c-3.36-2.85-2.94-6.36.86-8.12Z"/><path class="cls-18" d="M206.59,348s-2.49,1.71-.16,5.76,4.36,1.56,9.66,5.6,7.16,4.83,10,4.52,4.51-1.72,5-3.27-.93-4.2-.93-4.2Z"/><path class="cls-17" d="M229,348.14s1.09,5.3,1.71,9.34c.15,1.87-2.34,4.42-5.92,4.26s-5.6-1.25-6.85-2.8-9-4.57-10.43-5.81-1.71-5-1.09-5.92a4.71,4.71,0,0,1,5.45-1.4c2.49,1.09,4.52,3.11,9.5,3.42S229,348.14,229,348.14Z"/><path class="cls-18" d="M231.29,334.5s-2.49,1.71-.16,5.76,4.36,1.55,9.65,5.6,7.16,4.83,10,4.52,4.51-1.72,5-3.27-.94-4.21-.94-4.21Z"/><path class="cls-17" d="M253.7,334.65s1.09,5.3,1.72,9.34c.15,1.87-2.34,4.41-5.92,4.26s-5.6-1.25-6.85-2.8-9-4.57-10.43-5.81-1.71-5-1.09-5.92a4.71,4.71,0,0,1,5.45-1.4c2.49,1.09,4.52,3.11,9.5,3.42S253.7,334.65,253.7,334.65Z"/><path class="cls-57" d="M234.35,291.59c1.25,10,6.23,36.11,7.06,45.24,0,0,2.07,3.32,8.3,2.49l2.95-1.23a2.86,2.86,0,0,0,1.75-3c-.63-5-2-17.71-1.38-25.24.83-9.55-1.66-15.36-1.66-15.36.21-3.11.62-13.9-5.6-16.81,0,0-15.26-2.8-11.42,13.91"/><path class="cls-58" d="M247,282.25l-1.66,3.32s-25.53,1.24-32.38,8.72c0,0-4.56.83-3.32,10.79s6.23,36.11,7.06,45.24c0,0,2.07,3.33,8.3,2.49l3-1.23a2.86,2.86,0,0,0,1.74-3c-.62-5-2-17.71-1.38-25.24.83-9.54-1.66-15.36-1.66-15.36A130.79,130.79,0,0,1,249.92,315c12,5,22.41-.83,27-3.32a29.78,29.78,0,0,0,6.22-4.15A19,19,0,0,0,294.33,303c5.4-4.56,6.23-16.6.42-23.66S247,282.25,247,282.25Z"/><path class="cls-59" d="M256.14,219.15s4.13-1.53,3.86-7c-1.26-5.42-2.77-5.79-2.77-5.79S263,201,270,202.67c0,0,4.3,8.72,9.16,12.46C279.12,215.13,275.24,225.38,256.14,219.15Z"/><path class="cls-41" d="M265.17,222.27s15.26-12.77,18.37-13.08c3.73-.31,8.4.93,9.65,6.23a9.76,9.76,0,0,1-4.36,10.89c-2.8,1.56-27.39,13.39-31.75,13.39s-7.16-3.74-4.36-8.41S265.17,222.27,265.17,222.27Z"/><path class="cls-42" d="M269.84,213.76s-16.19,5.39-20.75,12.86-3.74,15.78-.42,27.4-3.32,22-1.66,28.23,13.28,12,30.3,9.13,18.27-9.55,19.51-13.28-3.32-21.59.83-36.12-4.15-24.49-7.47-27S280.22,209.19,269.84,213.76Z"/><path class="cls-41" d="M290.18,215c-3.32-2.49-10-5.81-20.34-1.24,0,0-16.19,5.39-20.75,12.86a21.25,21.25,0,0,0-2.41,5.62c6.56-8.52,15.86-12.26,21.92,2.27,5.65,13.57-8.73,53.43-21.29,40.9a15.58,15.58,0,0,0-.3,6.84c1.66,6.22,13.28,12,30.3,9.13s18.27-9.55,19.51-13.28-3.32-21.59.83-36.12S293.5,217.49,290.18,215Z"/><path class="cls-19" d="M254.38,220.81s4.36,2.81,15.25,1.25,11.52-9.34,10.59-10a20.26,20.26,0,0,1-2.8-3.12s-11.52,5.3-15.57,6.85-6.23,2.49-6.23,2.49Z"/><path class="cls-60" d="M247.22,186.88s-.94,11.21,5,18.68,11.83,3.11,15.57,1.24,5.29-5,6.53-14,1.25-17.74-5.29-20.54-13.7-3.43-17.74,3.42S247.22,186.88,247.22,186.88Z"/><path class="cls-61" d="M251.58,173.49s-5.3,4-5,10-1.56,6.85-.94,10,5.61,4,5.92,8.4,6.85,5.92,10.27,7.16,9-2.8,10.59-5,1.24-7.78,3.11-12.76.93-11.21-.62-15.57-4.67-5.29-4.67-5.29a7.6,7.6,0,0,0-5.3-4C261.23,165.71,249.71,166.33,251.58,173.49Z"/><g class="cls-2"><path class="cls-3" d="M301.47,357.59c-.57,6.28-6.48,10.55-11.81,12.85a45.43,45.43,0,0,1-18.5,3.43,44.19,44.19,0,0,1-18.8-4.17c-5.06-2.49-10.43-7-10.41-13.15,0,4.47.3,8.17,3.52,11.66,4.15,4.5,10.4,6.92,16.28,8.14,11.47,2.36,27.08,1.22,35.8-7.61,3.5-3.55,4-7.3,4-12A8.5,8.5,0,0,1,301.47,357.59Z"/><path class="cls-4" d="M292.74,344.42c11.67,6.74,11.75,17.67.15,24.41s-30.48,6.74-42.15,0-11.73-17.67-.13-24.41S281.07,337.68,292.74,344.42Z"/></g><g class="cls-2"><polygon class="cls-5" points="277.05 330.8 276.98 356.85 272.42 359.49 272.5 333.44 277.05 330.8"/><polygon class="cls-6" points="272.5 333.44 272.42 359.49 267.84 356.85 267.91 330.8 272.5 333.44"/><polygon class="cls-7" points="277.05 330.8 272.5 333.44 267.91 330.8 272.47 328.15 277.05 330.8"/></g><path class="cls-40" d="M330.18,241.86a5.36,5.36,0,0,0-7.13-4.87c-14.89,5.23-49,17.6-51.21,22-2.09,4.18-8.84,27.52-12.16,39.22a5.36,5.36,0,0,1-7.88,3.14l-20.63-12.16a5.37,5.37,0,0,0-8,5.5l3.32,19.87a5.36,5.36,0,0,0,2.61,3.77L251.16,331a42.46,42.46,0,0,0,40.12,1.16l17-8.51a42.44,42.44,0,0,0,23.43-39.51Z"/><path class="cls-8" d="M271.84,259c-2.09,4.18-8.84,27.52-12.16,39.22a5.36,5.36,0,0,1-7.88,3.14l-20.63-12.16a5.36,5.36,0,0,0-8,5.5l3.32,19.87a5.08,5.08,0,0,0,.42,1.32l.79,1.24a5.61,5.61,0,0,0,1.4,1.21L251.16,331a42.32,42.32,0,0,0,14.92,5.17c17.91-13.89,15.65-71.87,9.16-76.74a8.88,8.88,0,0,0-2.56-1.41A3.62,3.62,0,0,0,271.84,259Z"/><path class="cls-42" d="M232,241.36s15.26-12.76,18.37-13.07c3.74-.32,8.41.93,9.65,6.22a9.77,9.77,0,0,1-4.36,10.9c-2.8,1.55-27.39,13.39-31.75,13.39s-7.16-3.74-4.36-8.41S232,241.36,232,241.36Z"/><path class="cls-60" d="M210.48,221.12a10.9,10.9,0,0,1-.93-2.64c-.16-1.09.46-2.49-.16-5s-1.71-4.67-2.18-6.38c-1.24-1.56-2.33,1.24-1.4,3.58s.62,3.73-.31,3.89-4.82-2.18-5.91-3.43-7.32-7.31-7.94-6.54-.63,1.56,1.55,3.9,3,3.42,3.12,4a10.24,10.24,0,0,0,.77,3.12c.78,1.86.16,3.11,1.56,4.82s4,2,5.29,3.12l1.25,1.09Z"/><path class="cls-42" d="M223.87,258.8s-6.54,1.24-10.07-6-9.54-26.78-10.37-28.65a7.85,7.85,0,0,1,7.26-4.35s5.81,11.41,9.13,16.6S235,256.72,223.87,258.8Z"/><path class="cls-14" d="M127.66,135.05s2-1.29,3.23-.92a53.77,53.77,0,0,0,6.64,1.1c1.29.09,3.87-2.21,4.33-2.58s.74-1.2,1.29-1.75.83-.46.83-1.48,1-1.94,1.48-2.4,2.31-1.56,2.12-2.39-1.11-.37-1.66-.19-2.67,2.12-3.6,2.68a11.5,11.5,0,0,1-4.24,1.38,9,9,0,0,1-2.12-.28s-.28,0,.83-.37a14.11,14.11,0,0,1,2.67-.27c.93-.19,1.39-.74,1.3-1.2s-1.3-.46-1.76-.46a35.32,35.32,0,0,1-4.33-.1c-1.11-.18-2.95,1.66-3.32,2a8.8,8.8,0,0,1-3.32,1C127,129,127.66,135.05,127.66,135.05Z"/><path class="cls-9" d="M88,134.06s1.93,6.37,10,6.12,28.14-4,30.18-4.09a7.85,7.85,0,0,0,.49-8.46s-12.8.15-18.94-.39S84.65,123.26,88,134.06Z"/><path class="cls-9" d="M45.24,146.81s-3.38-19.6-5.55-21.85c-2.64-2.66-7-4.73-11.39-1.5a9.78,9.78,0,0,0-3.72,11.13c1.13,3,12.23,27.93,15.55,30.75s7.88,1.79,8.76-3.59S45.24,146.81,45.24,146.81Z"/><path class="cls-14" d="M79.26,157.25s2.65.16,3.58.16,8.09-.63,9.34-.63,1.24,1.41,1.24,1.41a9.62,9.62,0,0,1,1.25,2.8,7.68,7.68,0,0,0,.31,2.64c.31.78-.15,1.4-.47,2s-1.09.93-1.86,1.4a2.49,2.49,0,0,1-2.34.15c-.62-.31-.62-.46.16-.93a8.82,8.82,0,0,0,1.4-1.09,4.34,4.34,0,0,1-2.34,1.09,9.9,9.9,0,0,1-4.82-.47l-3.43-1.71-2.49-.31Z"/><path class="cls-9" d="M39.61,162.7s1.93,6.37,10,6.13,28.14-4,30.18-4.1a7.86,7.86,0,0,0,.5-8.46s-12.81.15-19-.38S36.29,151.9,39.61,162.7Z"/></g></g></svg>